<svg xmlns="http://www.w3.org/2000/svg" viewBox="0 0 83.987 20"><defs><style>.a{fill:#fafafa;}.b{fill:#8aff80;}</style></defs><g transform="translate(-1046 -24)"><path class="a" d="M519.7,451.1a4,4,0,0,0,4,4h19.99v-6H525.7v-8h18v-6h-24Z" transform="translate(526.3 -411.1)"/><path class="a" d="M1166.7,449.1h-12v-8h18l-.067-6H1148.7v19.99h19.99a4,4,0,0,0,4-4V445.1h-6v4Z" transform="translate(-42.709 -411.1)"/><path class="a" d="M819.1,435.2h-6v19.99h6v-3.5l2-2-2-2v-4.006l3.758,3.758,4.244-4.244Z" transform="translate(260.883 -411.191)"/><path class="a" d="M967.892,435.2l-7.992,7.992,4.244,4.244,3.748-3.758v4.034l-.019-.029-2,2,2,2,.019-.029v3.529h6V435.2Z" transform="translate(128.084 -411.191)"/><rect class="b" width="2.823" height="2.823" transform="translate(1085.979 38.499) rotate(-45)"/></g></svg>