<svg width="110" height="113" viewBox="0 0 110 113" fill="none" xmlns="http://www.w3.org/2000/svg">
<circle cx="50.4272" cy="33.2913" r="1.5" fill="black"/>
<path fill-rule="evenodd" clip-rule="evenodd" d="M45.061 27.5829H66.0268C65.975 27.6504 65.9458 27.7027 65.9055 27.7424C65.2632 28.3868 64.6208 29.0276 63.9806 29.6709C63.8791 29.7745 63.7782 29.8069 63.6391 29.8069C62.4732 29.8007 61.3073 29.8033 60.1435 29.8033C59.2333 29.8033 58.3263 29.8033 57.4204 29.8054C57.3273 29.8054 57.2321 29.8111 57.1312 29.8179V34.7995H64.3206C64.25 34.8822 64.2228 34.9235 64.1851 34.9617C63.3869 35.7614 62.5804 36.5622 61.7853 37.3651C61.6854 37.4698 61.5808 37.5017 61.4417 37.499C60.5771 37.4933 59.7088 37.5027 58.8395 37.4933C58.6757 37.4917 58.5528 37.5351 58.4304 37.6445C57.0537 38.8444 55.6755 40.039 54.2941 41.2316C54.2282 41.2912 54.1633 41.3477 54.0556 41.4319C54.0352 41.0893 54.0472 40.7907 54.0435 40.4894C54.0425 40.1918 54.0435 39.8947 54.0435 39.596V38.6812V37.7653V36.8724V35.9581V35.0632V34.1169H53.77C52.7809 34.1169 51.7933 34.1138 50.8032 34.119C50.6776 34.119 50.5767 34.0965 50.4888 33.9883C49.8465 33.2262 49.2 32.4709 48.5519 31.7083C48.5352 31.6858 48.52 31.6575 48.4766 31.5958C48.802 31.5738 49.1011 31.5853 49.4009 31.5832H50.3157H51.2562H52.1736H53.09H53.9965C54.0556 31.396 54.0676 30.1365 54.0132 29.8158H53.7135C51.5538 29.8158 49.3914 29.8111 47.2281 29.8211C47.0262 29.8211 46.8897 29.7635 46.7578 29.6045C46.2567 28.9957 45.7405 28.402 45.2321 27.8005C45.1819 27.7424 45.1358 27.6786 45.061 27.5829Z" fill="#DF0F36"/>
<path fill-rule="evenodd" clip-rule="evenodd" d="M21.3496 68.2303L14.4531 40.8161L28.7898 40.416L32.6078 37.3661C32.6078 37.3661 29.315 27.4221 32.1395 19.7642C35.4371 10.8238 46.0612 3.24543 56.5019 3.00334C66.4937 2.77165 76.5831 11.6447 79.5207 23.28C81.0318 29.265 75.9143 36.2788 75.9143 36.2788L79.8966 40.1061L94.0002 40.3419L86.7145 68.2615L92.7258 68.2643L86.4824 86.5742L81.9411 86.554L81.0049 90.1414L78.5 92L74 93.5L53.7539 109.227L35 92.5L29.5 92L26.4771 88.6126L25.8967 86.3053L21.2693 86.2847L17.3042 68.2284L21.3496 68.2303Z" fill="black"/>
<path fill-rule="evenodd" clip-rule="evenodd" d="M31.417 19.2262C34.8689 9.8676 45.8184 2.2502 56.4072 2.00468C66.8089 1.76349 77.163 10.8796 80.1716 22.796C81.1678 26.7419 80.172 30.9449 77.2549 35.3689L77.039 35.6894L79.875 38.4154L94.751 38.6644L88.534 66.2004H93.5L87.8183 89.025L81.5 89L81 93.5H74.5L53.7233 110L34.5 93.5H28L27.099 89.2024L19.6587 89.174L14.5 66.1674H19.827L13.6465 39.1467L28.815 38.7224L31.61 36.4894L31.5102 36.1633C29.6741 30.0534 29.5816 24.5465 31.2596 19.668L31.417 19.2262ZM77.8678 24.3776C75.1151 13.4747 65.6785 5.16634 56.4623 5.38004C46.8367 5.60323 36.7565 12.6158 33.6462 21.0485C31.8988 25.7861 32.0447 31.2703 34.1188 37.534L34.3789 38.3193L29.6757 42.0763L16.71 42.4374L22.9144 69.5444H18L21.572 86.5H29L29.828 91.0044H35L53.754 107.09L74 91H79L79.5 86.5L86.023 86.5934L90.5 69.5752H85.473L91.701 41.9894L78.9019 41.7758L73.9159 36.9839L74.7848 35.7737C77.737 31.5937 78.7349 27.8118 77.8678 24.3776Z" fill="url(#paint0_linear)"/>
<path d="M55.5246 13.5029C59.0203 13.6215 62.9436 16.5085 64.4156 19.6265L65.0722 20.9516C65.5206 21.8708 65.8223 22.7275 65.9743 23.7328L59.813 20.4169L59.7311 20.38C59.6155 20.3375 59.4755 20.252 59.3338 20.1579L59.1644 20.0432C58.8537 19.8309 58.5797 19.6455 58.5939 19.8712L58.6025 19.9308L59.5497 24.1174L59.323 24.0547C57.705 23.5913 56.4262 23.0646 55.49 22.4801C54.3048 21.7402 52.7719 21.0755 51.1439 19.6767C50.9697 19.527 50.3972 19.0405 49.4266 18.2174C49.6222 19.049 49.9755 19.7285 50.4864 20.256C51.9196 21.7357 53.6141 22.7982 54.8581 23.5749C56.0499 24.3189 57.6835 24.956 59.7637 25.4944L60.2163 25.6083L60.3034 25.6231C60.677 25.6587 60.9965 25.3328 60.9695 24.9436L60.957 24.8529L60.4034 22.1716L66.0887 25.2332L66.0889 25.5487C66.0835 26.0773 66.0502 26.6547 65.9888 27.2974L65.9162 27.9779C65.8726 28.3502 65.8205 28.7214 65.7704 29.0928C65.5958 30.2903 65.3823 31.4812 65.1504 32.6689C64.88 33.9642 64.5963 35.3358 63.9919 36.526L61.4685 38.2547L59.1316 38.255C59.1553 38.1028 59.1675 37.9468 59.1675 37.7879C59.1675 37.6533 59.1585 37.5189 59.1406 37.3858L59.1071 37.1871L59.0603 36.9909H51.8949L51.8345 37.1558C51.3766 38.5355 52.0658 40.0512 53.4328 40.6015C53.6964 40.7076 53.9742 40.7724 54.2567 40.7941L54.4692 40.8023H56.1532L56.3497 40.796C57.2594 40.7374 58.0592 40.2754 58.5721 39.5869L58.6775 39.436L61.6528 39.4362L61.7415 39.4295C61.7999 39.4206 61.8567 39.403 61.9099 39.3773L61.9868 39.3327L63.5858 38.2358L64.7998 38.549L66.0413 38.8821L72.4185 40.8723C73.2609 41.2157 74.1041 41.5445 74.8896 42.0091C75.1239 42.1554 75.3071 42.2946 75.4388 42.4266L75.5818 42.5723C75.8376 42.8375 76.1179 43.1505 76.4226 43.5114L68.5746 43.5122L68.5314 43.52C68.5314 43.52 47.338 43.1891 43.5 43.457C43.2942 42.6745 43.5 43.018 43.5 43.5C43.5 43.457 43.1458 43.5122 42.7381 43.5122L33.2461 43.5119L33.334 43.457L45.1206 38.5862L45.2756 37.631C45.4918 35.9079 45.8769 34.349 45.5061 32.6238L44.7679 28.8809L44.2177 26.0521C43.6898 23.4849 46.6437 17.9775 48.6342 16.4098C49.3743 15.8599 50.1238 15.3279 50.9302 14.8775C52.3381 14.091 53.7246 13.5923 54.996 13.5114C55.1756 13.5 55.3518 13.4971 55.5246 13.5029ZM63.6948 28.5623L56.9809 30.1123C58.3782 32.2602 59.7183 32.9597 61.0012 32.2107C62.2841 31.4617 63.182 30.2456 63.6948 28.5623ZM47.4152 28.4464C47.9391 30.0818 48.8441 31.267 50.1302 32.0021C51.4163 32.7372 52.7493 32.0686 54.1291 29.9964C52.6316 29.9682 51.4715 29.8592 50.6487 29.6692C49.826 29.4793 48.7482 29.0717 47.4152 28.4464Z" fill="white"/>
<path fill-rule="evenodd" clip-rule="evenodd" d="M55.0752 87.0001H70.1523C70.1211 87.0354 70.0938 87.0669 70.0691 87.0955C70.0198 87.1524 69.9803 87.1979 69.9385 87.2406C69.7219 87.4673 69.5041 87.693 69.2863 87.9187C68.8652 88.3551 68.4442 88.7915 68.0313 89.2351C67.8666 89.4109 67.658 89.6311 67.4056 89.6311C65.359 89.6228 63.3132 89.6237 61.2689 89.6247C60.612 89.625 59.9554 89.6253 59.2989 89.6253H58.9242C58.8562 89.9798 58.9092 91.2158 58.9831 91.4228H60.1161H61.2616H62.4084H63.584H64.7276C64.8354 91.4235 64.9433 91.4229 65.0518 91.4223C65.3203 91.4209 65.5933 91.4194 65.8829 91.4367C65.8524 91.475 65.833 91.5017 65.8182 91.5221C65.8067 91.538 65.7979 91.5501 65.7887 91.561C65.5305 91.8298 65.2724 92.0978 65.0147 92.3654C64.4639 92.9373 63.9146 93.5078 63.3676 94.0818C63.2578 94.2015 63.1316 94.2263 62.9747 94.2263C62.0745 94.2221 61.1762 94.2228 60.2775 94.2235C59.9405 94.2238 59.6034 94.224 59.2662 94.224H58.9242V95.2701V96.2596V97.2704V98.2576V99.2702V100.282L55.0647 102.311V97.9632C55.0641 97.9628 55.0636 97.9624 55.063 97.9619V94.9787H55.0647V89.4711L55.0752 89.4688C55.0647 89.4711 55.0647 89.4589 55.0647 89.4589L55.0752 87.0001Z" fill="#E21139"/>
<path d="M53.1402 87H38.063C38.0943 87.0354 38.1215 87.0668 38.1463 87.0954C38.1955 87.1523 38.235 87.1978 38.2768 87.2406C38.4934 87.4673 38.7112 87.693 38.929 87.9187C39.3501 88.3551 39.7712 88.7914 40.184 89.2351C40.3488 89.4109 40.5194 89.4745 40.7718 89.4745C42.3165 89.4682 44.0635 89.4774 45.7809 89.4865C47.07 89.4932 48.3424 89.4999 49.5 89.4999L49.5379 100.031L53.1506 102.311V97.9632L53.1523 97.9632V94.9786H53.1506L53.1402 87Z" fill="#E21139"/>
<path d="M42.8169 89.2917L45.0613 87.0613L52 93.9999L49.7556 96.2304L42.8169 89.2917Z" fill="#E21139"/>
<path d="M20 45L34 52L35.5 67.5L25.5 66.5L20 45Z" fill="#DF0F36"/>
<path d="M88.5 45L74.5 52L73 67.5L83 66.5L88.5 45Z" fill="#DF0F36"/>
<path fill-rule="evenodd" clip-rule="evenodd" d="M19.9995 45H29.5276C30.6262 46.2275 32.2228 47 33.9998 47H72.9998C74.7768 47 76.3734 46.2275 77.472 45H88.4995L84.5579 55H60.3765L58.3863 52L51.9089 52.0242L49.7315 55H24.6536L19.9995 45Z" fill="#DF0F36"/>
<path fill-rule="evenodd" clip-rule="evenodd" d="M69.3259 65.9128C69.3259 67.8028 68.6203 68.3698 66.7933 68.3698H62.6227C60.8713 68.3698 60.1909 67.7398 60.1909 65.9128V60.1798C60.1909 58.6426 60.9595 58 62.6227 58H66.7933C68.5447 58 69.3259 58.567 69.3259 60.1798V65.9128ZM43.0777 68.2942V65.56H45.6229C47.4499 65.56 48.1555 64.9804 48.1555 63.0904V60.268C48.1555 58.6552 47.3743 58.063 45.6229 58.063H39.0835V68.2942H43.0777ZM43.6069 63.2416H43.0777V60.3688H43.6195C44.0227 60.3688 44.1613 60.6082 44.1613 61.1122V62.5108C44.1613 63.0148 44.0227 63.2416 43.6069 63.2416ZM64.752 66.0388C64.3866 66.0388 64.248 65.812 64.248 65.308V61.0492C64.248 60.5452 64.3866 60.3058 64.752 60.3058C65.1174 60.3058 65.2686 60.5452 65.2686 61.0492V65.308C65.2686 65.812 65.1426 66.0388 64.752 66.0388ZM53.4185 64.0732V68.2942H49.4243V58.063H55.9007C57.7025 58.063 58.4837 58.7182 58.4837 60.4948C58.4837 61.8556 58.0301 62.5234 56.8331 62.8258C58.0553 63.1156 58.4963 63.9724 58.4963 65.6608V68.2942H54.4391V64.804C54.4391 64.2622 54.2879 64.0732 53.8595 64.0732H53.4185ZM53.8595 61.843H53.4185V60.394H53.8595C54.3005 60.394 54.4391 60.5956 54.4391 61.1248C54.4391 61.6414 54.2879 61.843 53.8595 61.843ZM28.9942 78.032V80.7662H25V70.535H31.5394C33.2908 70.535 34.072 71.1272 34.072 72.74V75.5624C34.072 77.4524 33.3664 78.032 31.5394 78.032H28.9942ZM29.5234 75.7136H28.9942V72.8408H29.536C29.9392 72.8408 30.0778 73.0802 30.0778 73.5842V74.9828C30.0778 75.4868 29.9392 75.7136 29.5234 75.7136ZM42.0067 78.4352V80.7662H35.5555V70.535H39.5497V78.4352H42.0067ZM47.8228 80.7662L48.0496 78.5486H49.1962L49.423 80.7662H53.5558L51.754 70.535H45.5044L43.7026 80.7662H47.8228ZM48.2008 76.2932H49.045L48.6292 72.8156L48.2008 76.2932ZM60.721 80.7662V76.898L63.682 70.535H59.7886L58.7176 72.992L57.6592 70.535H53.7658L56.7268 76.898V80.7662H60.721ZM72.012 78.4352V80.7662H65.0638V70.535H72.012V72.866H69.3657V73.9874H72.012V76.3184H69.3657V78.4352H72.012ZM77.4328 80.7662V76.5452H77.8738C78.3022 76.5452 78.4534 76.7342 78.4534 77.276V80.7662H82.5106V78.1328C82.5106 76.4444 82.0696 75.5876 80.8474 75.2978C82.0444 74.9954 82.498 74.3276 82.498 72.9668C82.498 71.1902 81.7168 70.535 79.915 70.535H73.4386V80.7662H77.4328ZM77.4328 74.315H77.8738C78.3022 74.315 78.4534 74.1134 78.4534 73.5968C78.4534 73.0676 78.3148 72.866 77.8738 72.866H77.4328V74.315Z" fill="white"/>
<path fill-rule="evenodd" clip-rule="evenodd" d="M44.2075 17.0437C47.5403 11.428 55.2374 10.0437 55.2374 10.0437L55.4469 10.1417C56.4981 10.3352 63.4864 11.7995 66.2585 16.9759C69.2598 22.5803 69.8375 23.2163 69.8375 23.2163C69.8375 23.2163 71.6781 24.5007 71.9497 25.7491C72.2213 26.9975 72.111 32.1268 70.4915 33.7091C68.872 35.2915 66.1938 34.7898 66.1938 34.7898L67.5993 24.7014C67.5993 24.7014 66.5552 18.7827 64.2515 16.585C64.0883 16.4293 63.9334 16.2803 63.7848 16.1374C61.8358 14.2632 60.9759 13.4362 56.8289 12.2763C56.4868 12.1806 56.1747 12.0988 55.8898 12.0294C55.8392 12.0266 55.7877 12.0235 55.735 12.0202C51.2356 11.7397 48.3365 14.3607 46.0328 16.5584C43.7291 18.7561 42.1288 25.114 42.1288 25.114C42.1288 25.114 43.1325 27.4698 43.4674 29.5031C43.8022 31.5364 43.7158 34.751 43.7158 34.751C43.7158 34.751 41.5567 35.5934 39.9372 34.0111C38.3177 32.4288 37.5724 25.9154 37.8222 24.7407C38.072 23.566 40.739 22.6667 40.739 22.6667C40.739 22.6667 40.8747 22.6593 44.2075 17.0437Z" fill="white"/>
<defs>
<linearGradient id="paint0_linear" x1="-0.869348" y1="-12.7384" x2="-0.869348" y2="133.921" gradientUnits="userSpaceOnUse">
<stop stop-color="#BABABA"/>
<stop offset="0.999973" stop-color="white"/>
</linearGradient>
</defs>
</svg>
