<svg width="184" height="27" viewBox="0 0 184 27" fill="none" xmlns="http://www.w3.org/2000/svg">
<path d="M182 26.2411V19.9532H169.125V16.5598H179.48V10.6711H169.125V7.57703H182V1.28913H161.726V26.2411H182ZM159.543 15.9484V1.28913H152.157V15.5617C152.157 18.506 150.411 20.3525 147.566 20.3525C144.622 20.3525 142.888 18.506 142.888 15.5617V1.28913H135.489V15.9734C135.489 22.6605 140.031 26.8525 147.566 26.8525C155.002 26.8525 159.543 22.6605 159.543 15.9734V15.9484ZM126.407 9.47339L131.709 4.88222C129.8 2.68644 126.008 0.690277 120.705 0.690277C112.421 0.690277 107.331 6.07991 107.331 13.7651C107.331 21.4504 112.421 26.7402 120.007 26.7402C125.197 26.7402 127.592 23.9331 128.89 21.4379H129.202L127.605 26.2287H133.493V13.6653H126.207V18.1567C125.409 19.0924 123.912 20.2527 121.217 20.2527C117.374 20.2527 114.929 17.6576 114.929 13.7651C114.929 9.87262 117.274 7.1778 120.917 7.1778C123.725 7.1778 125.509 8.3755 126.407 9.47339ZM92.2476 16.3601L94.7178 8.92444L97.1881 16.3601H92.2476ZM88.9789 26.2411L90.3013 22.2488H99.1343L100.457 26.2411H108.541L99.3589 1.28913H90.0768L80.8944 26.2411H88.9789ZM79.31 26.2411V19.9532H66.4347V16.5598H76.7898V10.6711H66.4347V7.57703H79.31V1.28913H59.0365V26.2411H79.31ZM44.6891 1.28913V19.8534H57.0653V26.2411H37.2783V1.28913H44.6891ZM1.64683 1.26417H26.9107V8.79968L18.3148 16.3352H18.1152L19.9117 8.05112H9.13244L1.64683 1.26417ZM17.7783 19.4542L25.2639 26.2411H0V18.7056L8.58349 11.1701H8.78311L6.98656 19.4542H17.7783Z" fill="#18FFAC"/>
</svg>
